<svg xmlns="http://www.w3.org/2000/svg" viewBox="0 0 256 256" width="256" height="256" role="img" aria-labelledby="title">
<title id="title">Nori · 收拾应用与残留文件</title>
<style>
@keyframes breathe{0%,100%{transform:scale(1)}50%{transform:scale(1.025,.975)}}
@keyframes blink{0%,43%,49%,100%{transform:scaleY(1)}46%{transform:scaleY(.08)}}
.body{transform-origin:132px 218px;animation:breathe 1.5s ease-in-out infinite}
.eye{animation:blink 5s ease-in-out infinite}
@keyframes pack{0%,12%{transform:translate(0,-18px) rotate(-8deg);opacity:0}25%{opacity:1}72%,100%{transform:translate(0,35px) rotate(5deg);opacity:0}}
@keyframes tuck{0%,100%{transform:rotate(-5deg)}50%{transform:rotate(6deg)}}
.app-tile{animation:pack 1.8s ease-in-out infinite}
.hand{transform-origin:154px 164px;animation:tuck 1.8s ease-in-out infinite}
@media(prefers-reduced-motion:reduce){*{animation:none!important}}
</style>
<g transform="translate(8 12) scale(.76)"><g class="body"><path d="M72 218C36 209 25 186 29 150C34 105 56 67 91 43C126 18 171 8 199 21C225 34 232 82 235 127C238 173 235 194 209 204C174 218 119 228 72 218Z" fill="#BFEAF2"/>
<g fill="#10283F"><g transform="translate(119 113) rotate(-10)"><rect class="eye" x="-9" y="-17" width="18" height="34" rx="9"/></g><g transform="translate(182 106) rotate(-10)"><rect class="eye" x="-9" y="-17" width="18" height="34" rx="9"/></g></g></g></g>
<g class="app-tile"><rect x="167" y="133" width="30" height="32" rx="7" fill="#69C7DD" stroke="#10283F" stroke-width="3"/><path d="M177 143H187M177 151H187" stroke="#10283F" stroke-width="3" stroke-linecap="round"/></g>
<path d="M133 182L176 168L222 184V224L178 239L133 224Z" fill="#10283F" stroke="#69C7DD" stroke-width="3" stroke-linejoin="round"/>
<path d="M133 182L177 199L222 184M177 199V239" fill="none" stroke="#69C7DD" stroke-width="3"/>
<path d="M133 182L119 170L163 155L176 168L191 155L234 172L222 184L177 199Z" fill="#BFEAF2" stroke="#10283F" stroke-width="3" stroke-linejoin="round"/>
<path d="M133 182L176 168L222 184L177 199Z" fill="#10283F"/>
<ellipse class="hand" cx="143" cy="169" rx="18" ry="10" fill="#BFEAF2" stroke="#10283F" stroke-width="3"/>
</svg>
